<?xml version="1.0" standalone="no"?>
<!DOCTYPE svg PUBLIC "-//W3C//DTD SVG 20010904//EN"
 "http://www.w3.org/TR/2001/REC-SVG-20010904/DTD/svg10.dtd">
<svg version="1.0" xmlns="http://www.w3.org/2000/svg"
 width="500.000000pt" height="500.000000pt" viewBox="0 0 500.000000 500.000000"
 preserveAspectRatio="xMidYMid meet">

<g transform="translate(0.000000,500.000000) scale(0.100000,-0.100000)"
fill="#000000" stroke="none">
<path d="M3210 3888 c-33 -55 -39 -116 -45 -474 -3 -192 -8 -364 -11 -382 -6
-40 -44 -61 -169 -92 -166 -41 -321 -13 -431 81 l-59 50 -6 128 c-7 153 -23
194 -77 199 -28 3 -40 -4 -83 -50 -81 -85 -164 -181 -196 -229 -64 -97 -145
-357 -162 -527 -12 -114 -27 -145 -79 -160 -55 -17 -66 -15 -89 11 -44 48 -80
232 -68 346 18 169 111 419 210 567 48 72 143 159 212 196 115 61 235 86 591
124 161 18 220 34 178 50 -26 10 -206 -10 -434 -47 -279 -45 -371 -85 -504
-215 -107 -105 -244 -391 -274 -574 -34 -209 3 -442 78 -489 51 -32 156 -4
183 48 8 17 22 75 30 129 28 186 34 211 70 319 52 152 82 204 193 329 101 113
143 147 161 129 16 -16 31 -109 31 -192 0 -88 -17 -128 -57 -136 -38 -8 -178
-112 -234 -175 -62 -69 -91 -132 -97 -213 -10 -139 56 -245 169 -272 38 -9 88
28 121 88 62 112 116 352 118 518 0 55 10 58 57 17 45 -40 117 -75 181 -89
113 -24 279 -7 386 38 l48 21 -7 -52 c-12 -88 -52 -201 -92 -259 -32 -45 -51
-60 -113 -90 -102 -49 -176 -132 -139 -154 10 -7 108 55 178 112 33 27 40 28
155 31 67 1 147 -1 179 -5 l59 -8 24 -58 c64 -151 186 -301 283 -349 73 -35
149 -31 236 14 116 59 174 132 219 273 52 164 44 497 -17 770 -13 61 -32 147
-42 193 -15 66 -22 82 -37 82 -24 0 -24 -2 17 -165 63 -249 92 -517 76 -685
-13 -132 -35 -219 -74 -293 -69 -131 -235 -207 -351 -163 -77 29 -176 141
-254 286 -55 103 -61 96 90 103 206 10 251 30 305 134 47 90 57 140 50 256 -6
118 -35 236 -77 323 -31 63 -107 144 -135 144 -35 0 -104 -47 -173 -117 -58
-59 -82 -93 -117 -166 -53 -113 -85 -223 -85 -296 0 -29 9 -94 21 -143 12 -49
19 -92 15 -95 -3 -3 -68 -1 -144 3 l-140 9 40 69 c41 73 78 201 78 272 0 32 8
52 36 88 19 25 41 61 49 79 52 124 64 436 26 647 -11 63 -21 127 -21 143 0 39
-35 36 -60 -5z m51 -154 c8 -45 13 -163 13 -274 1 -175 -2 -203 -23 -278 -13
-45 -31 -92 -41 -104 -16 -21 -17 -18 -14 58 2 43 5 210 8 369 2 196 8 300 16
320 11 28 13 29 20 9 5 -11 14 -56 21 -100z m479 -420 c60 -69 100 -184 120
-344 15 -122 -3 -214 -55 -296 -49 -76 -73 -85 -260 -91 l-152 -6 -23 84 c-33
118 -32 220 5 319 55 149 98 221 179 298 68 64 80 72 115 72 32 0 44 -6 71
-36z m-1295 -391 c-13 -131 -43 -281 -69 -345 -14 -35 -26 -69 -26 -74 0 -6
-13 -31 -30 -57 -25 -40 -34 -47 -61 -47 -31 0 -80 28 -111 65 -30 36 -51 113
-45 170 10 99 64 179 181 268 101 77 115 86 144 86 23 1 23 0 17 -66z"/>
</g>
</svg>
